<svg xmlns="http://www.w3.org/2000/svg" viewBox="0 0 407.66 93.58"><defs><style>.cls-1{fill:#fff;}.cls-2{fill:lime;}.cls-3{fill:none;}</style></defs><g id="Camada_2" data-name="Camada 2"><g id="Layer_1" data-name="Layer 1"><path class="cls-1" d="M31.84,73.38A40.56,40.56,0,0,1,21.18,74.6C10.3,74.6,0,68.87,0,51.84v-9c0-17,10.3-22.68,21.18-22.68a40.69,40.69,0,0,1,10.66,1.21c1,.29,1.57.58,1.57,1.58v6.94a1.26,1.26,0,0,1-1.36,1.43h-.21c-2.72-.22-6.65-.57-10.59-.57-4.94,0-8.87,2.57-8.87,12.09v9c0,9.52,3.93,12.1,8.87,12.1,3.94,0,7.87-.36,10.59-.58h.21a1.27,1.27,0,0,1,1.36,1.43v6.94C33.41,72.74,32.84,73.09,31.84,73.38Z"/><path class="cls-1" d="M50.87,74H42.14a1.56,1.56,0,0,1-1.5-1.5V20.51a1.51,1.51,0,0,1,1.5-1.44h8.73a1.38,1.38,0,0,1,1.36,1.44V72.45A1.43,1.43,0,0,1,50.87,74Z"/><path class="cls-1" d="M71.55,28.3h-9.3a1.43,1.43,0,0,1-1.43-1.43V20.22a1.43,1.43,0,0,1,1.43-1.43h9.3A1.43,1.43,0,0,1,73,20.22v6.65A1.43,1.43,0,0,1,71.55,28.3ZM71.26,74H62.53a1.44,1.44,0,0,1-1.43-1.43V34.39A1.44,1.44,0,0,1,62.53,33h8.73a1.44,1.44,0,0,1,1.43,1.44V72.52A1.43,1.43,0,0,1,71.26,74Z"/><path class="cls-1" d="M106.68,73.52a39.39,39.39,0,0,1-9.52,1.08c-10.09,0-16.67-6.44-16.67-18.11v-6c0-11.66,6.58-18.1,16.67-18.1a38.88,38.88,0,0,1,9.52,1.08c1.07.28,1.5.57,1.5,1.64v6.37a1.29,1.29,0,0,1-1.36,1.22h-.14A67.43,67.43,0,0,0,98,42.18c-3.22,0-5.87,1.94-5.87,8.3v6c0,6.37,2.65,8.3,5.87,8.3a67.71,67.71,0,0,0,8.73-.5h.14a1.28,1.28,0,0,1,1.36,1.22v6.37C108.18,73,107.75,73.24,106.68,73.52Z"/><path class="cls-1" d="M150.83,34.46l-13.31,18.1,13.23,19.89a.74.74,0,0,1,.15.57A.9.9,0,0,1,150,74H139.16a1.8,1.8,0,0,1-1.79-1l-10.3-16.81V72.45a1.49,1.49,0,0,1-1.43,1.5H117a1.56,1.56,0,0,1-1.5-1.5V20.51a1.51,1.51,0,0,1,1.5-1.44h8.66a1.44,1.44,0,0,1,1.43,1.44v29.9L138,34A2.16,2.16,0,0,1,139.81,33H150c.64,0,1.07.36,1.07.79A1.18,1.18,0,0,1,150.83,34.46Z"/><path class="cls-2" d="M205.42,74H196a1.3,1.3,0,0,1-1.14-1.43V42.69c0-.51-.22-.58-.36-.58s-.36.15-.57.5l-6.44,11.81a2.3,2.3,0,0,1-2.15,1.22h-5.72a2.3,2.3,0,0,1-2.15-1.22L171,42.61c-.21-.35-.35-.5-.57-.5s-.36.07-.36.58V72.52A1.3,1.3,0,0,1,168.93,74h-9.45c-.57,0-1.21-.21-1.21-1V23.22a2.36,2.36,0,0,1,2.57-2.43h6.73a3.36,3.36,0,0,1,3.15,1.93l10.94,20.39c.29.58.5.93.79.93s.5-.35.79-.93l10.94-20.39a3.36,3.36,0,0,1,3.15-1.93h6.73a2.42,2.42,0,0,1,2.57,2.51V73C206.63,73.74,206,74,205.42,74Z"/><path class="cls-2" d="M257.51,22.29,246.85,66.65C245.2,73.52,240,74.6,235,74.6s-10.23-1.08-11.88-7.95L212.5,22.29c0-.14-.07-.21-.07-.35a1.21,1.21,0,0,1,1.29-1.15h9.94a1.51,1.51,0,0,1,1.43,1.29L234,63.36c.14.79.36,1.08,1,1.08s.86-.29,1-1.08l9-41.28a1.44,1.44,0,0,1,1.35-1.29h10a1.11,1.11,0,0,1,1.22,1.15A3,3,0,0,0,257.51,22.29Z"/><path class="cls-2" d="M281.76,55.35c-1.72,0-4-.14-5.79-.22V72.52A1.44,1.44,0,0,1,274.54,74h-9.23a1.37,1.37,0,0,1-1.43-1.36V24.51c0-2.43,1-3.07,3.21-3.43a105.84,105.84,0,0,1,14.53-.93c10.8,0,21.46,3.79,21.46,17.24V38C303.08,51.41,292.42,55.35,281.76,55.35Zm9.16-18c0-5.08-3.15-7.08-9.16-7.08-1,0-4.93.14-5.79.21v14.6c.78.07,5,.14,5.79.14,6.37,0,9.16-2.36,9.16-7.23Z"/><polygon class="cls-3" points="340.25 93.58 375.31 72.93 375.31 20.43 340.25 0 340.25 93.58"/><polygon class="cls-2" points="371.79 47.77 346.16 32.84 346.16 62.86 371.79 47.77"/><path class="cls-1" d="M406.08,45,350.94,12.88a3.18,3.18,0,0,0-4.78,2.75v9.85L379.67,45a3.18,3.18,0,0,1,0,5.49L346.16,70.24v10A3.18,3.18,0,0,0,351,83l55.14-32.48a3.18,3.18,0,0,0,0-5.49Z"/><path class="cls-1" d="M326.12,74.67V21.16l20,11.68V25.48l-21.62-12.6a3.18,3.18,0,0,0-4.78,2.75v64.6A3.18,3.18,0,0,0,324.55,83l21.61-12.73V62.86Z"/></g></g></svg>